<!DOCTYPE svg PUBLIC "-//W3C//DTD SVG 20010904//EN" "http://www.w3.org/TR/2001/REC-SVG-20010904/DTD/svg10.dtd">
<svg version="1.0" xmlns="http://www.w3.org/2000/svg" width="128px" height="128px" viewBox="0 0 1280 1280" preserveAspectRatio="xMidYMid meet">
<g id="layer101" fill="#0D9488" stroke="none">
<path d="M0 640 l0 -640 640 0 640 0 0 640 0 640 -640 0 -640 0 0 -640z"/>
</g>
<g id="layer102" fill="#5cabe1" stroke="none">
<path d="M278 1176 c-16 -12 -18 -37 -18 -260 l0 -246 -83 0 c-84 0 -107 -9 -107 -39 1 -18 65 -91 80 -91 6 0 10 -7 10 -15 0 -8 7 -15 15 -15 8 0 21 -13 30 -29 8 -17 24 -36 36 -45 25 -17 137 -126 277 -270 57 -58 110 -106 117 -106 8 0 48 35 89 77 74 76 76 77 76 48 1 -68 7 -75 69 -75 31 0 73 3 94 6 l37 7 0 147 0 147 100 101 c135 135 134 150 -10 154 l-95 3 -2 250 c-1 210 -4 251 -16 259 -10 7 -21 5 -31 -3 -14 -12 -16 -49 -16 -280 0 -146 3 -277 7 -290 6 -23 9 -23 70 -18 34 4 63 3 63 0 0 -4 -29 -37 -65 -74 l-65 -67 0 -131 0 -131 -35 0 -35 0 -1 60 c-1 33 -2 66 -3 73 -1 14 -56 23 -56 9 0 -10 -165 -182 -175 -182 -3 0 -102 98 -220 218 l-215 217 55 6 c89 10 85 -6 85 303 0 271 -3 297 -34 296 -6 0 -19 -7 -28 -14z"/>
<path d="M429 950 c-1 -3 -1 -13 0 -22 1 -10 -3 -28 -10 -40 -6 -13 -8 -20 -4 -16 5 5 14 -1 22 -11 14 -21 46 -18 76 7 20 18 21 32 5 67 -10 21 -17 25 -50 23 -21 -2 -38 -5 -39 -8z m29 -65 c-3 -3 -9 2 -12 12 -6 14 -5 15 5 6 7 -7 10 -15 7 -18z"/>
<path d="M535 936 c21 -31 11 -70 -25 -99 -24 -19 -30 -35 -43 -112 -22 -131 -30 -125 168 -125 198 0 190 -5 168 125 -12 73 -20 94 -43 115 -34 31 -44 63 -31 89 6 11 11 22 11 25 0 3 -50 6 -110 6 l-110 0 15 -24z"/>
<path d="M765 940 c-12 -14 -16 -27 -11 -47 4 -15 7 -33 8 -39 2 -15 61 -4 76 14 17 23 15 45 -8 70 -26 27 -42 28 -65 2z"/>
</g>
<g id="layer103" fill="#feffff" stroke="none">
<path d="M287 1183 c-4 -3 -7 -120 -7 -260 l0 -253 -93 0 c-93 0 -117 -8 -117 -38 0 -16 549 -572 565 -572 6 0 44 34 85 75 41 41 78 75 82 75 5 0 8 -17 8 -38 0 -21 5 -43 12 -50 13 -13 80 -16 141 -6 l37 7 0 147 0 147 100 101 c55 55 100 107 100 115 0 27 -26 36 -116 39 l-89 3 -5 255 c-5 232 -7 255 -22 258 -32 6 -38 -42 -38 -304 0 -245 1 -255 21 -275 18 -18 29 -20 70 -15 27 4 49 4 49 0 0 -4 -29 -38 -65 -75 l-65 -67 0 -131 0 -131 -35 0 -35 0 0 56 c0 57 -12 94 -31 94 -6 0 -53 -43 -105 -95 -51 -52 -96 -95 -99 -95 -3 0 -102 98 -220 218 l-215 217 57 6 c38 5 61 13 70 25 16 22 19 507 3 548 -9 25 -29 34 -43 19z"/>
<path d="M512 1148 c-2 -36 -7 -50 -22 -58 -16 -8 -20 -21 -20 -60 l0 -50 165 0 165 0 0 50 c0 39 -4 52 -20 60 -15 8 -20 22 -22 58 l-1 47 -4 -45 c-3 -24 -8 -47 -13 -50 -4 -3 -55 -4 -113 -2 l-106 3 -4 47 -3 47 -2 -47z"/>
<path d="M446 945 c-19 -19 -21 -66 -4 -83 40 -40 96 15 67 66 -18 33 -41 39 -63 17z m14 -46 c0 -17 -4 -28 -10 -24 -5 3 -10 17 -10 31 0 13 5 24 10 24 6 0 10 -14 10 -31z"/>
<path d="M536 943 c16 -38 7 -77 -24 -103 -28 -23 -32 -34 -43 -118 -9 -73 -9 -95 1 -107 18 -22 312 -22 330 0 10 12 10 34 1 107 -11 84 -15 95 -43 118 -31 26 -40 65 -24 103 7 16 -1 17 -99 17 -98 0 -106 -1 -99 -17z"/>
<path d="M767 942 c-44 -48 15 -126 61 -80 17 17 15 64 -4 82 -20 21 -37 20 -57 -2z m63 -36 c0 -14 -4 -28 -10 -31 -6 -4 -10 7 -10 24 0 17 5 31 10 31 6 0 10 -11 10 -24z"/>
</g>


</svg>