<!DOCTYPE svg PUBLIC "-//W3C//DTD SVG 20010904//EN" "http://www.w3.org/TR/2001/REC-SVG-20010904/DTD/svg10.dtd">
<svg version="1.0" xmlns="http://www.w3.org/2000/svg" width="128px" height="128px" viewBox="0 0 1280 1280" preserveAspectRatio="xMidYMid meet">
<g id="layer101" fill="#0D9488" stroke="none">
 <path d="M0 640 l0 -640 640 0 640 0 0 640 0 640 -640 0 -640 0 0 -640z"/>
 </g>
<g id="layer102" fill="#ffffff" stroke="none">
 <path d="M958 1216 c-41 -12 -92 -57 -114 -98 -20 -39 -18 -126 5 -168 32 -60 83 -93 150 -98 75 -5 118 9 164 56 73 75 72 187 -3 262 -54 54 -124 71 -202 46z m112 -71 c32 -16 55 -50 45 -65 -11 -17 -32 -11 -49 15 -20 30 -51 33 -66 6 -14 -28 -13 -31 14 -31 13 0 26 -7 30 -15 4 -11 -2 -15 -24 -15 -17 0 -30 -4 -30 -10 0 -5 11 -10 25 -10 16 0 25 -6 25 -15 0 -9 -9 -15 -24 -15 -19 0 -23 -4 -19 -20 7 -27 50 -26 72 1 15 19 18 20 30 5 12 -14 11 -19 -4 -36 -40 -44 -123 -32 -145 21 -7 16 -16 29 -21 29 -14 0 -11 28 4 34 8 3 7 8 -6 16 -18 11 -18 13 2 31 12 11 21 25 21 32 0 14 59 57 78 57 7 0 26 -7 42 -15z"/>
 <path d="M380 1158 c-103 -17 -261 -63 -281 -81 -33 -31 -20 -117 34 -223 31 -61 57 -85 127 -113 103 -43 145 -63 161 -78 15 -12 17 -10 23 24 20 121 30 169 36 176 4 5 17 -5 29 -22 13 -17 26 -31 31 -31 19 0 19 62 0 170 -11 63 -20 132 -20 153 l0 37 -42 -1 c-24 -1 -68 -6 -98 -11z"/>
 <path d="M671 1069 c-6 -57 -16 -130 -22 -162 -8 -46 -7 -61 4 -78 15 -20 15 -20 37 10 12 17 25 29 29 27 4 -3 13 -45 20 -93 18 -122 16 -118 51 -93 16 11 66 34 112 51 45 16 93 39 105 51 l23 22 -51 13 c-138 35 -220 170 -174 289 9 25 15 47 13 49 -2 2 -33 7 -70 11 l-65 6 -12 -103z"/>
 <path d="M550 739 c-36 -20 -90 -93 -90 -120 0 -8 -20 -54 -45 -104 -38 -78 -45 -101 -50 -175 -6 -80 -5 -88 22 -139 37 -72 82 -106 160 -122 51 -11 72 -10 115 1 90 22 120 45 155 114 22 44 24 58 21 140 -5 92 -10 110 -81 241 -9 17 -23 46 -31 65 -21 49 -100 121 -133 120 -4 0 -24 -10 -43 -21z"/>
 </g>

</svg>