<!DOCTYPE svg PUBLIC "-//W3C//DTD SVG 20010904//EN" "http://www.w3.org/TR/2001/REC-SVG-20010904/DTD/svg10.dtd">
<svg version="1.0" xmlns="http://www.w3.org/2000/svg" width="128px" height="128px" viewBox="0 0 1280 1280" preserveAspectRatio="xMidYMid meet">
<g id="layer101" fill="#0D9488" stroke="none">
<path d="M0 640 l0 -640 640 0 640 0 0 640 0 640 -640 0 -640 0 0 -640z"/>
</g>
<g id="layer102" fill="#b0d6f0" stroke="none">
<path d="M135 1109 c-4 -6 -3 -15 2 -20 5 -5 215 -8 514 -7 440 3 504 5 504 18 0 13 -64 15 -507 18 -359 1 -509 -1 -513 -9z"/>
<path d="M200 1030 c0 -20 7 -20 445 -20 438 0 445 0 445 20 0 20 -7 20 -445 20 -438 0 -445 0 -445 -20z"/>
<path d="M247 973 c-4 -3 -7 -129 -7 -280 0 -266 0 -273 20 -273 20 0 20 7 20 280 0 227 -3 280 -13 280 -8 0 -17 -3 -20 -7z"/>
<path d="M370 700 c0 -273 0 -280 20 -280 20 0 20 7 20 280 0 273 0 280 -20 280 -20 0 -20 -7 -20 -280z"/>
<path d="M880 700 c0 -273 0 -280 20 -280 20 0 20 7 20 280 0 273 0 280 -20 280 -20 0 -20 -7 -20 -280z"/>
<path d="M1010 701 c0 -275 0 -281 20 -281 20 0 20 5 18 277 -3 255 -4 278 -20 281 -17 3 -18 -15 -18 -277z"/>
<path d="M527 814 c-15 -15 -6 -41 26 -71 41 -39 94 -58 139 -49 39 7 99 43 106 63 5 16 -28 30 -37 16 -9 -16 -67 -43 -90 -43 -34 0 -75 22 -106 58 -17 18 -33 30 -38 26z"/>
<path d="M582 608 c2 -39 7 -53 18 -53 11 0 16 14 18 53 3 47 1 52 -18 52 -19 0 -21 -5 -18 -52z"/>
<path d="M672 608 c2 -39 7 -53 18 -53 11 0 16 14 18 53 3 47 1 52 -18 52 -19 0 -21 -5 -18 -52z"/>
<path d="M203 375 c-3 -9 -4 -17 -2 -19 72 -51 110 -76 115 -76 3 0 78 -47 165 -105 88 -58 162 -105 165 -105 3 0 104 64 225 143 142 92 218 147 216 157 -2 13 -60 15 -440 18 -388 2 -438 0 -444 -13z m627 -140 c-96 -63 -178 -115 -184 -115 -9 0 -299 182 -341 214 -18 14 15 15 340 15 l360 1 -175 -115z"/>
</g>
<g id="layer103" fill="#d1e6f4" stroke="none">
<path d="M250 701 c0 -244 2 -281 15 -281 13 0 15 35 13 277 -2 210 -6 277 -15 281 -10 3 -13 -57 -13 -277z"/>
<path d="M1017 973 c-4 -3 -7 -129 -7 -280 0 -236 2 -273 15 -273 13 0 15 38 15 280 0 154 -4 280 -8 280 -5 0 -12 -3 -15 -7z"/>
<path d="M520 796 c0 -45 82 -96 156 -96 44 0 66 10 124 57 2 2 -2 8 -10 13 -9 6 -23 2 -41 -11 -59 -42 -141 -32 -180 22 -21 30 -49 39 -49 15z"/>
<path d="M580 610 c0 -43 3 -50 20 -50 17 0 20 7 20 50 0 43 -3 50 -20 50 -17 0 -20 -7 -20 -50z"/>
<path d="M670 610 c0 -43 3 -50 20 -50 17 0 20 7 20 50 0 43 -3 50 -20 50 -17 0 -20 -7 -20 -50z"/>
<path d="M200 368 c0 -7 37 -35 81 -63 44 -27 137 -87 206 -132 69 -46 130 -83 134 -83 5 0 9 -4 9 -10 0 -19 23 -10 86 35 34 25 67 45 73 45 6 0 11 5 11 10 0 6 4 10 10 10 5 0 38 19 73 43 34 23 95 62 135 87 39 25 72 51 72 58 0 9 -96 12 -445 12 -349 0 -445 -3 -445 -12z m790 -33 c-7 -8 -18 -15 -25 -15 -8 0 -15 -4 -17 -8 -3 -10 -264 -177 -291 -187 -10 -4 -36 5 -67 24 -28 17 -54 31 -59 31 -5 0 -11 4 -13 8 -1 4 -51 38 -111 76 -59 38 -110 72 -113 77 -3 5 148 9 352 9 316 0 355 -2 344 -15z"/>
</g>
<g id="layer104" fill="#ffffff" stroke="none">
<path d="M75 1179 c-4 -6 -3 -15 2 -20 5 -5 239 -8 574 -7 493 3 564 5 564 18 0 13 -71 15 -567 18 -402 1 -569 -1 -573 -9z"/>
<path d="M140 1100 c0 -20 7 -20 505 -20 498 0 505 0 505 20 0 20 -7 20 -505 20 -498 0 -505 0 -505 -20z"/>
<path d="M205 1039 c-4 -6 -3 -15 2 -20 5 -5 187 -8 444 -7 378 3 434 5 434 18 0 13 -56 15 -437 18 -309 1 -439 -1 -443 -9z"/>
<path d="M250 700 c0 -221 3 -281 13 -278 18 7 18 549 0 556 -10 3 -13 -57 -13 -278z"/>
<path d="M375 968 c-3 -7 -4 -132 -3 -278 3 -228 5 -265 18 -265 13 0 15 37 15 274 0 211 -3 275 -12 278 -7 3 -15 -1 -18 -9z"/>
<path d="M885 968 c-3 -7 -4 -132 -3 -278 3 -228 5 -265 18 -265 13 0 15 37 15 274 0 211 -3 275 -12 278 -7 3 -15 -1 -18 -9z"/>
<path d="M1015 967 c-3 -7 -4 -131 -3 -276 2 -201 6 -265 16 -269 9 -3 12 57 12 277 0 186 -3 281 -10 281 -6 0 -13 -6 -15 -13z"/>
<path d="M526 788 c28 -90 192 -118 254 -43 23 27 -3 38 -30 13 -19 -18 -36 -23 -83 -23 -55 0 -61 3 -92 38 -37 42 -60 49 -49 15z"/>
<path d="M587 654 c-4 -4 -7 -27 -7 -51 0 -37 3 -43 21 -43 18 0 20 5 17 47 -3 44 -15 62 -31 47z"/>
<path d="M677 654 c-4 -4 -7 -27 -7 -51 0 -37 3 -43 21 -43 18 0 20 5 17 47 -3 44 -15 62 -31 47z"/>
<path d="M202 368 c3 -7 83 -63 179 -125 96 -61 179 -116 186 -122 7 -6 17 -11 23 -11 5 0 10 -3 10 -7 0 -5 12 -13 26 -20 22 -10 31 -7 90 33 35 24 69 44 74 44 6 0 10 5 10 10 0 6 7 10 15 10 8 0 15 5 15 10 0 6 4 10 10 10 5 0 38 20 73 45 36 25 68 45 71 45 12 0 106 72 106 81 0 5 -186 9 -446 9 -351 0 -445 -3 -442 -12z m788 -33 c-7 -8 -16 -15 -21 -15 -5 0 -17 -7 -26 -16 -31 -27 -283 -184 -296 -184 -18 0 -67 24 -67 33 0 4 -7 7 -15 7 -8 0 -15 5 -15 10 0 6 -5 10 -11 10 -6 0 -38 20 -72 44 -34 24 -75 51 -92 59 -16 9 -43 27 -60 41 l-30 25 359 1 c317 0 357 -2 346 -15z"/>
</g>


</svg>