<!DOCTYPE svg PUBLIC "-//W3C//DTD SVG 20010904//EN" "http://www.w3.org/TR/2001/REC-SVG-20010904/DTD/svg10.dtd">
<svg version="1.0" xmlns="http://www.w3.org/2000/svg" width="128px" height="128px" viewBox="0 0 1280 1280" preserveAspectRatio="xMidYMid meet">
<g id="layer101" fill="#0D9488" stroke="none">
 <path d="M0 640 l0 -640 640 0 640 0 0 640 0 640 -640 0 -640 0 0 -640z"/>
 </g>
<g id="layer102" fill="#ffffff" stroke="none">
 <path d="M326 1194 c-3 -8 -6 -131 -6 -272 l-1 -257 -24 45 c-23 43 -24 54 -25 223 l0 178 -97 -3 -98 -3 -3 -184 c-3 -208 -2 -211 80 -436 56 -155 66 -173 117 -228 30 -31 118 -77 150 -77 5 0 21 48 35 107 15 59 33 111 39 115 7 5 38 -18 79 -60 l68 -66 63 62 c34 34 70 62 79 62 18 0 24 -15 53 -147 10 -43 22 -73 29 -73 36 0 113 37 147 71 50 50 75 102 140 289 l54 155 0 205 0 205 -97 3 -98 3 0 -175 c0 -162 -2 -179 -22 -222 l-23 -46 -5 268 -5 269 -311 3 c-278 2 -312 1 -318 -14z"/>
 <path d="M721 286 l-45 -45 26 -20 c35 -28 56 -80 37 -92 -18 -11 -179 -12 -197 -1 -17 11 -6 40 31 80 l31 32 -39 40 c-21 22 -42 40 -45 40 -3 0 -16 -44 -28 -97 -20 -89 -20 -98 -6 -114 51 -57 305 -46 319 14 3 12 -5 64 -18 115 l-22 93 -44 -45z"/>
 </g>

</svg>