<!DOCTYPE svg PUBLIC "-//W3C//DTD SVG 20010904//EN" "http://www.w3.org/TR/2001/REC-SVG-20010904/DTD/svg10.dtd">
<svg version="1.0" xmlns="http://www.w3.org/2000/svg" width="128px" height="128px" viewBox="0 0 1280 1280" preserveAspectRatio="xMidYMid meet">
<g id="layer101" fill="#0D9488" stroke="none">
 <path d="M0 640 l0 -640 640 0 640 0 0 640 0 640 -640 0 -640 0 0 -640z"/>
 </g>
<g id="layer102" fill="#fefeff" stroke="none">
 <path d="M564 1180 c-63 -25 -82 -107 -38 -159 62 -74 184 -35 184 58 0 81 -72 131 -146 101z"/>
 <path d="M557 859 c-31 -18 -47 -73 -47 -156 0 -103 11 -123 85 -151 133 -50 175 -89 175 -164 0 -87 -57 -138 -153 -138 -75 0 -102 15 -161 90 -27 34 -60 66 -74 71 -35 13 -79 -6 -98 -43 -21 -40 -10 -87 37 -151 71 -100 234 -162 364 -138 183 34 288 146 289 307 1 148 -99 272 -244 300 -27 6 -30 10 -30 43 0 55 -18 109 -43 126 -25 17 -74 19 -100 4z"/>
 </g>

</svg>