<!DOCTYPE svg PUBLIC "-//W3C//DTD SVG 20010904//EN" "http://www.w3.org/TR/2001/REC-SVG-20010904/DTD/svg10.dtd">
<svg version="1.0" xmlns="http://www.w3.org/2000/svg" width="128px" height="128px" viewBox="0 0 1280 1280" preserveAspectRatio="xMidYMid meet">
<g id="layer101" fill="#0D9488" stroke="none">
 <path d="M0 640 l0 -640 640 0 640 0 0 640 0 640 -640 0 -640 0 0 -640z"/>
 </g>
<g id="layer102" fill="#feffff" stroke="none">
 <path d="M86 1138 c-14 -20 -16 -84 -16 -499 l0 -478 26 -20 c26 -20 38 -21 313 -21 322 0 331 2 331 64 0 37 -14 32 134 52 74 10 80 22 66 161 -6 65 -18 154 -25 198 -8 44 -17 113 -21 154 -6 70 -5 74 12 66 11 -4 31 -11 45 -17 38 -13 41 -40 12 -94 -21 -39 -26 -63 -27 -127 -1 -76 0 -80 29 -103 57 -46 134 -17 150 57 10 43 -4 128 -27 170 -32 58 -22 79 49 114 56 27 64 35 78 74 26 77 21 107 -24 137 -33 21 -54 26 -133 30 -63 4 -110 1 -145 -9 l-53 -14 0 31 c0 17 -7 42 -16 54 -14 20 -21 22 -60 16 -33 -5 -47 -2 -59 10 -14 14 -54 16 -320 16 -303 0 -304 0 -319 -22z m562 -170 c15 -15 15 -51 0 -66 -9 -9 -77 -12 -245 -12 l-233 0 -11 24 c-8 17 -8 29 0 45 11 20 17 21 244 21 168 0 236 -3 245 -12z m147 -33 c0 -25 -4 -30 -27 -33 -26 -3 -28 -1 -28 33 0 34 2 36 28 33 23 -3 27 -8 27 -33z m13 -104 c4 -28 -3 -36 -40 -45 -26 -6 -28 -4 -28 27 0 41 7 49 40 45 18 -2 26 -10 28 -27z m-154 -7 c9 -24 8 -31 -10 -48 -13 -14 -49 -16 -234 -16 -120 0 -225 3 -234 6 -16 6 -22 54 -9 67 3 4 113 7 244 7 207 0 238 -2 243 -16z m170 -96 c17 -27 -5 -52 -48 -56 -35 -3 -36 -2 -36 32 0 19 6 37 13 40 23 9 60 1 71 -16z m-179 -21 c13 -10 16 -21 11 -41 l-6 -26 -243 2 -242 3 -3 29 c-2 16 2 32 10 37 7 5 112 9 234 9 169 0 224 -3 239 -13z m193 -100 c6 -29 -17 -47 -59 -47 -36 0 -39 2 -39 28 0 38 7 43 55 40 29 -2 41 -8 43 -21z m11 -106 c16 -28 -7 -50 -61 -57 l-48 -7 0 35 c0 44 4 48 56 48 32 0 46 -5 53 -19z m-689 -141 c0 -40 -4 -70 -10 -70 -6 0 -10 30 -10 70 0 40 4 70 10 70 6 0 10 -30 10 -70z m51 32 c1 -27 1 -27 15 6 16 37 30 41 39 12 8 -26 25 -26 25 1 0 40 25 12 28 -31 7 -88 -25 -123 -49 -55 -7 19 -16 35 -20 35 -4 0 -13 -16 -19 -35 -12 -37 -34 -46 -44 -19 -8 21 -8 109 0 117 12 12 24 -4 25 -31z m149 13 c0 -18 5 -25 20 -25 10 0 24 -8 29 -17 9 -16 10 -14 11 9 0 50 46 73 85 44 14 -10 19 -25 19 -55 -1 -34 2 -41 17 -41 16 0 19 8 19 55 0 30 5 55 10 55 6 0 10 -25 10 -55 0 -42 3 -55 15 -55 8 0 15 -7 15 -15 0 -11 -11 -14 -40 -13 -23 1 -43 5 -46 9 -2 5 -16 3 -30 -3 -20 -10 -29 -8 -52 9 -24 18 -30 19 -38 7 -5 -8 -22 -16 -39 -17 l-30 -2 -3 68 c-2 55 0 67 13 67 9 0 15 -9 15 -25z m318 13 c18 -18 15 -43 -8 -63 -26 -24 -26 -38 1 -30 25 8 23 -12 -4 -29 -12 -8 -21 -5 -36 8 -27 24 -26 32 4 60 14 13 25 26 25 30 0 3 -11 6 -25 6 -42 0 -27 27 16 29 8 1 20 -4 27 -11z m189 -24 c10 -28 -11 -47 -65 -59 -28 -7 -54 -10 -57 -7 -3 3 -5 20 -5 38 0 36 9 41 78 43 31 1 44 -3 49 -15z"/>
 <path d="M454 386 c-11 -28 0 -61 21 -61 16 0 20 7 20 35 0 25 -5 36 -18 38 -9 2 -20 -3 -23 -12z"/>
 <path d="M360 335 c0 -8 5 -15 10 -15 6 0 10 7 10 15 0 8 -4 15 -10 15 -5 0 -10 -7 -10 -15z"/>
 </g>

</svg>