<!DOCTYPE svg PUBLIC "-//W3C//DTD SVG 20010904//EN" "http://www.w3.org/TR/2001/REC-SVG-20010904/DTD/svg10.dtd">
<svg version="1.0" xmlns="http://www.w3.org/2000/svg" width="128px" height="128px" viewBox="0 0 1280 1280" preserveAspectRatio="xMidYMid meet">
<g id="layer101" fill="#0D9488" stroke="none">
 <path d="M0 640 l0 -640 640 0 640 0 0 640 0 640 -640 0 -640 0 0 -640z"/>
 </g>
<g id="layer102" fill="#fefeff" stroke="none">
 <path d="M472 1178 c-8 -8 -12 -50 -12 -125 0 -84 -3 -113 -12 -113 -7 0 -55 24 -107 54 -51 30 -99 52 -105 50 -14 -5 -166 -265 -166 -282 0 -7 47 -39 105 -73 58 -34 105 -62 105 -64 0 -2 -47 -30 -105 -64 -58 -34 -105 -66 -105 -73 0 -18 153 -277 166 -282 7 -3 54 20 104 50 51 30 98 54 106 54 11 0 14 -23 14 -113 0 -75 4 -117 12 -125 17 -17 299 -17 316 0 8 8 12 52 12 130 0 65 2 118 4 118 3 0 50 -27 106 -59 56 -33 107 -58 114 -55 18 7 166 272 161 286 -3 8 -50 40 -105 72 -55 32 -100 59 -100 61 0 2 45 29 100 61 55 32 102 64 105 72 5 15 -143 279 -161 286 -7 3 -54 -20 -104 -50 -51 -30 -98 -54 -106 -54 -11 0 -14 23 -14 113 0 75 -4 117 -12 125 -17 17 -299 17 -316 0z m158 -127 c64 -32 80 -62 60 -110 -17 -42 -30 -39 -30 7 0 45 -11 61 -67 96 -74 45 -48 50 37 7z m10 -162 c0 -64 -4 -98 -10 -94 -6 3 -10 48 -10 101 0 56 4 94 10 94 6 0 10 -40 10 -101z m-43 -32 c-6 -43 -5 -45 54 -103 70 -68 93 -107 85 -140 -6 -23 -43 -64 -58 -64 -12 0 -10 44 3 57 21 21 -1 61 -60 113 -84 73 -97 125 -42 167 24 18 24 17 18 -30z m41 -180 c6 -7 12 -75 13 -162 2 -122 -1 -150 -12 -152 -8 -2 -18 0 -24 5 -12 9 -8 322 4 322 5 0 13 -6 19 -13z m-48 -159 c0 -13 -9 -34 -20 -48 -56 -72 20 -156 106 -115 39 18 92 13 101 -12 3 -8 -4 -24 -16 -36 -49 -49 -204 -11 -244 61 -25 42 -17 86 24 135 35 42 49 47 49 15z m70 -263 c0 -8 8 -26 17 -43 19 -34 14 -55 -21 -78 -24 -15 -28 -15 -52 0 -34 23 -40 43 -22 80 9 17 18 38 21 47 6 20 57 14 57 -6z"/>
 <path d="M693 303 c4 -3 10 -3 14 0 3 4 0 7 -7 7 -7 0 -10 -3 -7 -7z"/>
 </g>

</svg>