<!DOCTYPE svg PUBLIC "-//W3C//DTD SVG 20010904//EN" "http://www.w3.org/TR/2001/REC-SVG-20010904/DTD/svg10.dtd">
<svg version="1.0" xmlns="http://www.w3.org/2000/svg" width="128px" height="128px" viewBox="0 0 1280 1280" preserveAspectRatio="xMidYMid meet">
<g id="layer101" fill="#0D9488" stroke="none">
 <path d="M0 640 l0 -640 640 0 640 0 0 640 0 640 -640 0 -640 0 0 -640z"/>
 </g>
<g id="layer102" fill="#ffffff" stroke="none">
 <path d="M822 1166 c-117 -38 -198 -142 -220 -282 -12 -75 -1 -158 31 -227 114 -249 412 -251 528 -3 85 181 18 409 -143 492 -59 30 -139 38 -196 20z m138 -128 c56 -29 89 -86 71 -125 -16 -35 -40 -26 -71 27 -21 35 -33 46 -56 48 -37 4 -63 -22 -71 -72 l-6 -36 47 0 c25 0 46 -2 46 -4 0 -2 3 -11 6 -20 5 -13 -2 -16 -45 -16 -48 0 -51 -2 -51 -25 0 -23 4 -25 45 -25 25 0 45 -2 45 -4 0 -2 3 -11 6 -20 5 -13 -2 -16 -45 -16 -28 0 -51 -4 -51 -9 0 -29 26 -74 48 -82 35 -14 57 -3 81 37 27 46 55 43 59 -6 8 -99 -166 -138 -227 -51 -11 14 -24 45 -30 67 -7 28 -18 43 -31 47 -26 7 -26 37 0 37 14 0 20 7 20 24 0 15 -7 26 -20 29 -25 7 -26 37 -1 37 14 0 22 12 30 46 16 64 39 94 86 115 52 24 62 24 115 -3z"/>
 <path d="M346 1049 c-90 -12 -225 -47 -255 -66 -21 -13 -22 -20 -16 -61 10 -65 42 -147 72 -182 14 -17 72 -53 134 -84 l109 -54 0 92 c0 50 9 145 20 211 22 133 24 156 13 154 -5 -1 -39 -5 -77 -10z"/>
 <path d="M487 1048 c-14 -12 -15 -26 -6 -128 5 -63 11 -123 13 -133 2 -9 -3 -32 -11 -49 -11 -22 -13 -36 -6 -47 13 -21 63 -26 87 -8 18 13 18 16 3 45 -14 29 -14 47 -2 170 12 123 11 138 -3 150 -9 6 -25 12 -37 12 -12 0 -29 -6 -38 -12z"/>
 <path d="M454 614 c-48 -33 -54 -41 -54 -82 0 -18 -12 -54 -26 -78 -30 -51 -32 -82 -15 -213 17 -136 59 -185 161 -186 44 0 65 5 86 21 55 40 68 69 72 152 2 42 8 81 13 87 18 18 8 82 -21 140 -16 33 -30 75 -30 92 0 27 -8 38 -42 63 -51 38 -92 39 -144 4z"/>
 </g>

</svg>