<!DOCTYPE svg PUBLIC "-//W3C//DTD SVG 20010904//EN" "http://www.w3.org/TR/2001/REC-SVG-20010904/DTD/svg10.dtd">
<svg version="1.0" xmlns="http://www.w3.org/2000/svg" width="128px" height="128px" viewBox="0 0 1280 1280" preserveAspectRatio="xMidYMid meet">
<g id="layer101" fill="#0D9488" stroke="none">
 <path d="M0 640 l0 -640 640 0 640 0 0 640 0 640 -640 0 -640 0 0 -640z"/>
 </g>
<g id="layer102" fill="#fdfeff" stroke="none">
 <path d="M530 1144 c-67 -18 -184 -86 -206 -119 -15 -23 -15 -27 3 -57 26 -44 55 -47 99 -9 69 61 110 76 209 76 102 0 131 -12 223 -86 40 -33 62 -61 87 -114 18 -38 35 -83 38 -100 3 -16 8 -47 12 -67 l6 -38 -57 0 c-53 0 -56 -1 -52 -23 6 -29 128 -215 147 -222 7 -3 19 0 27 6 29 23 145 211 140 225 -4 10 -21 14 -56 14 l-50 0 0 37 c0 153 -115 355 -242 426 -118 66 -216 81 -328 51z"/>
 <path d="M595 902 c-53 -25 -99 -79 -120 -141 -12 -38 -22 -51 -36 -51 -28 0 -27 -56 1 -63 14 -3 20 -14 20 -31 0 -19 -5 -26 -20 -26 -16 0 -20 -7 -20 -30 0 -24 4 -30 23 -30 17 0 26 -11 41 -47 40 -96 129 -153 217 -138 59 10 79 32 67 73 -7 27 -13 32 -26 26 -9 -4 -40 -9 -68 -12 -47 -3 -53 -1 -87 32 -57 55 -51 66 38 66 l75 0 0 30 0 30 -84 0 c-67 0 -85 3 -90 16 -16 41 -9 44 84 44 l90 0 0 30 0 30 -81 0 -81 0 6 28 c8 34 69 92 98 93 39 2 72 -3 92 -13 21 -12 31 -3 40 34 5 23 2 30 -24 43 -49 25 -110 28 -155 7z"/>
 <path d="M172 828 c-69 -94 -113 -170 -108 -184 4 -9 22 -14 56 -14 l50 0 0 -38 c0 -72 41 -203 85 -267 78 -116 163 -179 281 -210 74 -19 124 -19 199 0 71 19 188 86 211 120 15 23 15 27 -3 57 -26 44 -55 47 -99 9 -69 -61 -110 -76 -209 -76 -80 0 -96 3 -141 28 -127 71 -195 175 -218 335 l-6 42 50 0 c36 0 52 4 57 15 8 23 -134 235 -158 235 -5 0 -26 -24 -47 -52z"/>
 </g>

</svg>