<!DOCTYPE svg PUBLIC "-//W3C//DTD SVG 20010904//EN" "http://www.w3.org/TR/2001/REC-SVG-20010904/DTD/svg10.dtd">
<svg version="1.0" xmlns="http://www.w3.org/2000/svg" width="128px" height="128px" viewBox="0 0 1280 1280" preserveAspectRatio="xMidYMid meet">
<g id="layer101" fill="#0D9488" stroke="none">
 <path d="M0 640 l0 -640 640 0 640 0 0 640 0 640 -640 0 -640 0 0 -640z"/>
 </g>
<g id="layer102" fill="#feffff" stroke="none">
 <path d="M353 1174 c-3 -9 2 -29 11 -45 l17 -29 -85 0 c-81 0 -86 -1 -102 -26 -16 -24 -16 -27 3 -52 l20 -27 220 -3 220 -2 39 -55 39 -54 131 -1 130 0 21 -28 c51 -69 117 -132 138 -132 26 0 55 29 55 56 0 16 -83 122 -221 282 -34 40 -39 42 -92 42 l-56 0 16 28 c9 16 14 36 10 45 -12 31 -45 19 -79 -28 l-33 -44 -140 -1 -141 0 -37 45 c-39 46 -73 58 -84 29z m559 -201 c30 -27 21 -33 -54 -33 -52 0 -76 4 -90 17 -30 27 -21 33 54 33 52 0 76 -4 90 -17z"/>
 <path d="M490 699 l0 -240 -22 6 c-13 4 -43 16 -67 26 -53 23 -61 23 -97 4 -38 -19 -132 -19 -179 1 -68 28 -80 5 -44 -91 45 -120 186 -228 339 -259 57 -11 65 -16 68 -37 5 -33 20 -49 46 -49 28 0 46 18 46 47 0 17 7 24 28 28 92 20 123 29 177 55 86 42 158 109 194 182 52 103 38 131 -50 102 -58 -19 -134 -14 -179 12 -27 16 -32 16 -80 1 -97 -32 -90 -49 -90 218 l0 235 -45 0 -45 0 0 -241z"/>
 </g>

</svg>