<!DOCTYPE svg PUBLIC "-//W3C//DTD SVG 20010904//EN" "http://www.w3.org/TR/2001/REC-SVG-20010904/DTD/svg10.dtd">
<svg version="1.0" xmlns="http://www.w3.org/2000/svg" width="128px" height="128px" viewBox="0 0 1280 1280" preserveAspectRatio="xMidYMid meet">
<g id="layer101" fill="#3498db" stroke="none">
 <path d="M0 640 l0 -640 640 0 640 0 0 640 0 640 -640 0 -640 0 0 -640z"/>
 </g>
<g id="layer102" fill="#ffffff" stroke="none">
 <path d="M267 1157 c-16 -11 -17 -35 -14 -262 2 -161 8 -274 17 -316 12 -61 12 -69 -3 -93 -10 -14 -24 -26 -32 -26 -24 0 -87 -62 -106 -105 -24 -51 -24 -119 0 -170 55 -122 219 -152 316 -58 41 40 69 124 59 177 -10 57 -58 122 -106 147 -24 12 -46 27 -50 33 -13 19 -9 101 7 146 12 33 15 94 15 276 0 229 0 233 -22 248 -27 19 -58 20 -81 3z m-47 -786 c-24 -46 -30 -71 -30 -120 0 -73 -14 -73 -29 1 -10 45 -9 56 10 94 17 36 60 84 75 84 2 0 -10 -26 -26 -59z"/>
 <path d="M670 1141 c-6 -12 -10 -108 -10 -241 0 -175 3 -234 16 -277 21 -74 8 -120 -52 -181 -24 -24 -47 -55 -50 -68 -4 -13 1 -70 10 -127 23 -140 25 -147 40 -147 11 0 13 22 9 113 -2 61 -5 124 -7 140 -2 22 1 27 21 27 23 0 23 0 23 -140 0 -118 2 -140 15 -140 13 0 15 22 15 140 0 133 1 140 20 140 19 0 20 -7 20 -140 0 -87 4 -140 10 -140 6 0 10 53 10 140 l0 140 25 0 24 0 -6 -140 c-5 -124 -4 -140 10 -140 17 0 18 4 42 163 7 54 11 106 8 115 -4 9 -26 38 -49 64 -50 54 -58 78 -49 150 4 29 9 162 11 294 4 213 3 243 -11 258 -23 23 -82 21 -95 -3z"/>
 <path d="M1007 1142 c-14 -15 -17 -42 -17 -160 0 -78 5 -161 12 -185 15 -59 5 -94 -35 -113 l-32 -15 6 -127 c7 -150 12 -180 46 -291 27 -86 75 -163 106 -169 16 -3 17 33 17 525 0 398 -3 532 -12 541 -18 18 -73 14 -91 -6z"/>
 </g>

</svg>