<!DOCTYPE svg PUBLIC "-//W3C//DTD SVG 20010904//EN" "http://www.w3.org/TR/2001/REC-SVG-20010904/DTD/svg10.dtd">
<svg version="1.0" xmlns="http://www.w3.org/2000/svg" width="128px" height="128px" viewBox="0 0 1280 1280" preserveAspectRatio="xMidYMid meet">

<g id="layer102" fill="#3498db" stroke="none">
 <path d="M0 640 l0 -640 640 0 640 0 0 640 0 640 -640 0 -640 0 0 -640z"/>
 <path d="M245 1182 c-59 -4 -72 -13 -97 -72 -23 -53 -37 -194 -20 -204 8 -4 14 8 18 34 4 22 11 43 15 46 5 3 9 15 9 27 0 12 11 40 25 62 22 36 24 38 24 15 0 -40 10 -130 16 -140 3 -4 -1 -11 -7 -13 -10 -4 -10 -8 1 -15 8 -6 11 -17 8 -25 -3 -9 -1 -17 5 -19 6 -2 11 -25 12 -51 0 -26 5 -47 9 -47 5 0 5 -9 2 -20 -4 -12 -2 -20 5 -20 7 0 9 -8 5 -20 -4 -12 -2 -20 5 -20 7 0 9 -8 5 -20 -3 -11 -2 -20 4 -20 5 0 15 -26 21 -57 17 -81 30 -123 39 -123 17 0 77 24 92 36 8 8 30 17 47 20 19 4 32 13 33 23 1 9 2 32 4 51 1 19 5 80 8 134 4 55 11 104 16 109 5 5 7 35 4 68 -3 32 -1 64 4 71 5 7 8 46 5 86 l-4 72 -62 0 c-35 0 -70 6 -81 14 -23 15 -97 23 -170 18z"/>
 <path d="M825 1170 c-4 -6 -11 -8 -16 -5 -5 4 -15 3 -21 -2 -7 -4 -17 -8 -23 -9 -5 0 -14 -2 -20 -2 -6 -1 -10 -77 -10 -203 l0 -201 40 -29 c22 -15 46 -28 53 -29 6 0 12 -4 12 -9 0 -5 -6 -12 -12 -14 -10 -4 -9 -6 1 -6 17 -1 122 105 144 145 9 16 25 49 37 74 11 25 25 53 31 63 5 10 13 41 16 68 6 50 20 62 43 34 6 -8 9 -19 5 -25 -3 -5 -1 -10 4 -10 12 0 15 -48 5 -74 -3 -9 -12 -16 -19 -16 -20 0 -35 -58 -31 -113 6 -73 65 -147 82 -103 3 7 -6 30 -20 50 -41 60 -41 74 -8 122 42 58 49 103 27 162 -20 52 -51 92 -72 92 -8 0 -29 11 -47 25 -29 22 -43 25 -114 25 -44 0 -84 -5 -87 -10z"/>
 <path d="M718 685 c-6 -14 -22 -32 -35 -40 -18 -12 -23 -25 -23 -56 0 -51 42 -127 76 -135 16 -4 30 -21 43 -50 11 -24 24 -44 30 -44 5 0 15 26 21 58 6 31 15 69 20 84 5 15 4 44 -1 68 -5 23 -8 47 -7 53 4 18 -52 69 -68 63 -8 -3 -14 1 -14 9 0 24 -29 17 -42 -10z"/>
 <path d="M492 494 c-8 -9 -22 -12 -33 -9 -11 4 -19 2 -19 -5 0 -6 -4 -8 -10 -5 -5 3 -10 1 -10 -5 0 -11 -48 -35 -63 -31 -5 1 -6 -6 -4 -16 3 -10 8 -34 11 -53 17 -95 61 -269 72 -285 18 -24 24 -16 31 34 4 31 10 41 27 43 11 2 32 20 45 41 14 21 32 37 43 37 20 0 59 19 70 35 4 5 7 33 7 62 -1 48 -3 53 -34 67 -18 9 -40 16 -49 16 -9 0 -16 5 -16 10 0 6 -7 10 -15 10 -8 0 -14 3 -13 8 1 8 -20 62 -24 62 -2 -1 -9 -8 -16 -16z"/>
 </g>
<g id="layer103" fill="#ffffff" stroke="none">
 <path d="M280 1180 c-8 -6 -27 -8 -41 -5 -33 7 -74 -25 -95 -73 -19 -46 -31 -187 -16 -196 6 -4 15 14 21 46 7 29 24 78 39 108 l27 55 8 -70 c11 -96 42 -257 76 -395 16 -63 32 -127 35 -142 4 -16 11 -28 16 -28 5 0 45 17 89 37 l79 37 8 85 c4 47 8 100 9 116 1 17 8 105 15 196 7 91 11 173 7 181 -4 12 -20 16 -59 17 -29 0 -71 6 -93 14 -61 21 -108 28 -125 17z"/>
 <path d="M830 1166 c-30 -8 -58 -12 -61 -10 -4 2 -13 2 -21 -1 -10 -4 -13 -47 -13 -203 0 -185 1 -198 20 -214 11 -10 24 -17 28 -18 5 0 22 -9 38 -20 l28 -21 32 23 c64 48 160 221 175 316 7 47 24 54 48 20 25 -35 21 -94 -9 -119 -32 -28 -39 -66 -25 -132 12 -62 52 -109 72 -89 10 10 10 16 0 30 -56 79 -60 121 -17 162 39 37 43 99 10 165 -14 30 -30 55 -34 55 -4 0 -29 14 -54 31 -56 37 -133 46 -217 25z"/>
 <path d="M720 690 c0 -5 -9 -19 -19 -29 -11 -11 -24 -29 -30 -40 -14 -25 -14 -78 -1 -86 6 -4 17 -22 24 -40 10 -22 24 -37 40 -41 19 -4 32 -20 47 -53 18 -41 22 -44 33 -29 20 27 39 154 31 213 -7 56 -21 73 -89 102 -34 16 -36 16 -36 3z"/>
 <path d="M437 465 c-77 -38 -79 -42 -72 -99 15 -110 69 -296 85 -296 10 0 20 37 20 71 0 21 6 28 30 33 23 4 35 15 45 40 12 29 20 35 59 40 52 8 61 24 51 87 -7 42 -32 65 -89 84 -18 6 -36 22 -44 38 -16 33 -23 33 -85 2z"/>
 </g>

</svg>