<!DOCTYPE svg PUBLIC "-//W3C//DTD SVG 20010904//EN" "http://www.w3.org/TR/2001/REC-SVG-20010904/DTD/svg10.dtd">
<svg version="1.0" xmlns="http://www.w3.org/2000/svg" width="128px" height="128px" viewBox="0 0 1280 1280" preserveAspectRatio="xMidYMid meet">
<g id="layer101" fill="#3498db" stroke="none">
 <path d="M0 640 l0 -640 640 0 640 0 0 640 0 640 -640 0 -640 0 0 -640z"/>
 </g>
<g id="layer102" fill="#ffffff" stroke="none">
 <path d="M285 1180 c-3 -5 -1 -45 5 -89 l12 -78 -51 -48 c-31 -29 -64 -74 -83 -112 -28 -57 -32 -75 -31 -143 0 -67 5 -87 32 -140 l31 -63 -25 -29 c-30 -36 -32 -67 -4 -102 37 -47 73 -27 42 24 -17 29 -17 31 5 52 l22 22 32 -31 c43 -41 148 -90 223 -104 33 -6 97 -9 143 -7 83 4 83 4 120 -29 63 -58 194 -79 245 -40 14 11 12 21 -24 96 l-39 83 34 38 c19 21 45 61 58 89 15 33 31 54 45 57 11 3 32 17 45 31 21 22 23 34 22 109 -1 103 -17 127 -100 144 -37 8 -60 20 -76 38 -13 15 -45 43 -71 61 l-49 33 7 74 7 75 -103 -3 -103 -3 -9 -42 -8 -43 -50 -1 c-27 -1 -56 -2 -66 -3 -11 -1 -19 12 -27 44 l-11 45 -97 3 c-58 2 -99 -1 -103 -8z m643 -563 c18 -14 15 -52 -8 -72 -37 -34 -100 7 -85 56 11 35 58 43 93 16z m-203 -182 c0 -26 -58 -38 -159 -32 -80 5 -103 15 -93 40 4 11 30 14 129 13 115 -1 123 -2 123 -21z"/>
 <path d="M555 258 c-61 -33 -73 -107 -26 -160 24 -27 36 -33 71 -33 56 0 100 46 100 103 -1 74 -82 125 -145 90z"/>
 </g>

</svg>