<!DOCTYPE svg PUBLIC "-//W3C//DTD SVG 20010904//EN" "http://www.w3.org/TR/2001/REC-SVG-20010904/DTD/svg10.dtd">
<svg version="1.0" xmlns="http://www.w3.org/2000/svg" width="128px" height="128px" viewBox="0 0 1280 1280" preserveAspectRatio="xMidYMid meet">
<g id="layer101" fill="#3498db" stroke="none">
 <path d="M0 640 l0 -640 640 0 640 0 0 640 0 640 -640 0 -640 0 0 -640z"/>
 </g>
<g id="layer102" fill="#ffffff" stroke="none">
 <path d="M290 1163 c-37 -13 -40 -33 -40 -244 l0 -207 -29 -30 c-37 -36 -45 -87 -39 -230 6 -122 18 -157 61 -172 63 -21 281 -6 298 21 5 8 23 56 41 107 31 88 36 95 86 129 l53 37 -24 13 c-14 7 -27 20 -31 28 -5 14 -13 11 -53 -16 -27 -18 -58 -41 -70 -52 l-23 -20 0 301 c0 289 -1 303 -20 322 -25 25 -61 26 -91 1 -23 -19 -24 -19 -48 0 -24 19 -43 22 -71 12z"/>
 <path d="M882 1158 c-8 -8 -12 -66 -12 -194 l0 -182 -30 -11 c-39 -13 -140 -108 -140 -131 0 -38 31 -30 84 20 l53 50 92 0 c105 0 157 16 166 52 3 13 5 57 3 98 -3 73 -4 75 -28 75 -24 0 -25 -3 -28 -67 -2 -38 -7 -68 -12 -68 -6 0 -10 72 -10 179 0 172 -1 180 -20 186 -12 4 -28 1 -36 -6 -11 -9 -18 -9 -26 -1 -15 15 -41 15 -56 0z"/>
 <path d="M906 681 c-25 -28 -14 -65 23 -81 52 -21 101 23 78 71 -17 33 -75 39 -101 10z"/>
 <path d="M318 232 c-82 -74 13 -186 116 -137 66 32 69 118 5 151 -44 22 -85 17 -121 -14z"/>
 </g>

</svg>