<!DOCTYPE svg PUBLIC "-//W3C//DTD SVG 20010904//EN" "http://www.w3.org/TR/2001/REC-SVG-20010904/DTD/svg10.dtd">
<svg version="1.0" xmlns="http://www.w3.org/2000/svg" width="128px" height="128px" viewBox="0 0 1280 1280" preserveAspectRatio="xMidYMid meet">
<g id="layer101" fill="#3498db" stroke="none">
 <path d="M0 640 l0 -640 640 0 640 0 0 640 0 640 -640 0 -640 0 0 -640z"/>
 </g>
<g id="layer102" fill="#feffff" stroke="none">
 <path d="M480 1171 c19 -11 44 -28 54 -40 19 -20 27 -21 293 -21 l273 0 0 -485 0 -485 -320 0 -320 0 0 186 c0 166 -2 185 -16 180 -9 -3 -27 -6 -40 -6 l-24 0 0 -201 c0 -119 4 -208 10 -220 10 -18 25 -19 383 -19 277 0 376 3 385 12 17 17 17 1089 0 1106 -9 9 -103 12 -362 12 -348 -1 -351 -1 -316 -19z"/>
 <path d="M313 1161 c-85 -21 -144 -92 -167 -203 -5 -21 -12 -28 -31 -28 -13 0 -27 -4 -30 -10 -10 -16 14 -50 35 -50 16 0 20 -7 20 -35 0 -32 -2 -35 -30 -35 -18 0 -30 -5 -30 -13 0 -20 22 -37 47 -37 18 0 23 -6 23 -27 0 -32 33 -109 58 -136 66 -73 217 -75 303 -5 37 30 52 101 27 126 -26 26 -55 13 -87 -37 -24 -39 -37 -51 -63 -56 -51 -10 -86 9 -108 57 -33 73 -30 78 51 78 67 0 70 1 67 23 -3 20 -9 22 -75 25 l-73 3 0 34 0 35 75 0 c78 0 84 4 69 44 -5 12 -21 16 -70 16 -61 0 -64 1 -64 24 0 68 46 126 100 126 47 0 75 -21 105 -79 13 -27 31 -51 40 -55 23 -9 54 11 61 39 24 98 -130 206 -253 176z"/>
 <path d="M588 960 l-17 -40 219 0 c120 0 225 3 234 6 19 7 21 45 4 62 -9 9 -71 12 -217 12 l-206 0 -17 -40z"/>
 <path d="M524 765 c-17 -13 -17 -14 -2 -15 9 0 28 -11 41 -25 l23 -25 224 2 225 3 3 24 c7 47 -13 51 -263 51 -188 0 -235 -3 -251 -15z"/>
 <path d="M517 543 c-14 -13 -6 -53 12 -63 12 -6 110 -10 248 -10 248 0 268 4 261 51 l-3 24 -256 3 c-140 1 -258 -1 -262 -5z"/>
 <path d="M522 318 c-7 -7 -12 -19 -12 -28 0 -37 18 -40 265 -40 174 0 244 3 253 12 17 17 15 55 -4 62 -9 3 -122 6 -253 6 -171 0 -240 -3 -249 -12z"/>
 </g>

</svg>