<!DOCTYPE svg PUBLIC "-//W3C//DTD SVG 20010904//EN" "http://www.w3.org/TR/2001/REC-SVG-20010904/DTD/svg10.dtd">
<svg version="1.0" xmlns="http://www.w3.org/2000/svg" width="128px" height="128px" viewBox="0 0 1280 1280" preserveAspectRatio="xMidYMid meet">
<g id="layer101" fill="#3498db" stroke="none">
 <path d="M0 640 l0 -640 640 0 640 0 0 640 0 640 -640 0 -640 0 0 -640z"/>
 </g>
<g id="layer102" fill="#ffffff" stroke="none">
 <path d="M364 1148 c-50 -17 -124 -79 -166 -138 -45 -66 -93 -183 -113 -282 -16 -72 -32 -278 -23 -278 3 0 41 9 84 19 44 11 108 23 144 26 l66 7 23 73 c28 92 102 221 161 281 25 26 69 60 97 76 29 17 53 32 53 35 0 2 -13 24 -29 47 -34 49 -88 99 -132 122 -39 20 -124 26 -165 12z m66 -173 c47 0 103 4 124 9 l40 9 -23 -29 c-76 -97 -204 -98 -272 -2 l-22 30 34 -8 c19 -5 72 -9 119 -9z m-119 -284 c16 -16 29 -39 29 -50 0 -20 -5 -21 -105 -21 -100 0 -105 1 -105 21 0 11 13 34 29 50 24 24 38 29 76 29 38 0 52 -5 76 -29z"/>
 <path d="M768 841 c-177 -57 -318 -352 -318 -664 0 -57 -11 -55 130 -16 74 21 107 24 250 24 151 0 173 -3 268 -29 56 -16 105 -26 109 -22 11 11 -15 247 -36 330 -42 159 -129 295 -227 352 -47 28 -131 39 -176 25z m113 -101 c46 -13 102 -68 134 -130 39 -76 34 -83 -32 -47 -53 29 -66 32 -148 32 -82 0 -97 -3 -155 -32 -36 -17 -65 -31 -66 -30 -1 1 7 25 18 54 23 63 93 138 140 152 44 12 66 13 109 1z m-103 -396 c25 -16 28 -34 10 -52 -13 -13 -101 -16 -185 -6 -42 6 -53 10 -53 25 0 59 154 81 228 33z m301 8 c28 -20 48 -49 40 -56 -10 -11 -186 -25 -218 -18 -19 4 -39 16 -45 26 -9 15 -7 21 13 34 64 45 161 51 210 14z"/>
 </g>

</svg>