<!DOCTYPE svg PUBLIC "-//W3C//DTD SVG 20010904//EN" "http://www.w3.org/TR/2001/REC-SVG-20010904/DTD/svg10.dtd">
<svg version="1.0" xmlns="http://www.w3.org/2000/svg" width="128px" height="128px" viewBox="0 0 1280 1280" preserveAspectRatio="xMidYMid meet">
<g id="layer101" fill="#3498db" stroke="none">
 <path d="M0 640 l0 -640 640 0 640 0 0 640 0 640 -640 0 -640 0 0 -640z"/>
 </g>
<g id="layer102" fill="#feffff" stroke="none">
 <path d="M507 1170 c-62 -10 -140 -41 -169 -67 -26 -24 -22 -58 12 -97 39 -44 104 -82 166 -98 27 -6 53 -15 58 -20 9 -8 35 -190 36 -255 0 -29 -4 -33 -42 -44 -48 -12 -104 -63 -114 -103 -5 -21 -2 -33 14 -49 18 -18 25 -19 47 -9 14 6 25 18 25 26 0 17 47 76 61 76 5 0 9 -33 9 -73 l0 -73 -54 -23 c-65 -27 -89 -59 -89 -119 0 -57 27 -92 91 -117 41 -16 53 -26 58 -48 7 -35 38 -33 42 3 2 21 13 29 52 43 34 12 55 27 69 51 35 56 25 86 -30 86 -11 0 -25 -13 -35 -32 -17 -33 -31 -48 -47 -48 -4 0 -7 30 -5 66 l3 67 45 13 c149 43 141 223 -11 264 -26 7 -39 16 -39 28 0 41 31 267 38 272 4 4 29 12 56 18 100 26 200 108 194 160 -4 32 -51 66 -122 87 -63 19 -241 27 -319 15z m221 -702 c2 -28 -2 -40 -20 -52 -41 -29 -48 -22 -48 55 l0 71 33 -19 c25 -15 33 -26 35 -55z m-118 -228 c0 -64 -9 -73 -42 -43 -26 23 -22 58 8 82 15 12 28 21 30 21 2 0 4 -27 4 -60z"/>
 <path d="M742 832 c-7 -5 -10 -16 -6 -26 9 -24 89 -83 130 -96 20 -7 33 -14 31 -16 -9 -10 -112 36 -149 66 -42 34 -44 33 -24 -13 30 -73 109 -110 219 -105 58 3 62 4 59 26 -4 39 -60 110 -108 138 -48 28 -129 42 -152 26z"/>
 <path d="M374 806 c-50 -23 -124 -102 -124 -131 0 -31 172 -35 230 -5 37 19 70 55 83 92 5 14 -1 13 -32 -8 -39 -25 -120 -54 -150 -54 -9 1 8 10 38 20 67 24 131 65 131 84 0 34 -104 36 -176 2z"/>
 </g>

</svg>