<!DOCTYPE svg PUBLIC "-//W3C//DTD SVG 20010904//EN" "http://www.w3.org/TR/2001/REC-SVG-20010904/DTD/svg10.dtd">
<svg version="1.0" xmlns="http://www.w3.org/2000/svg" width="128px" height="128px" viewBox="0 0 1280 1280" preserveAspectRatio="xMidYMid meet">
<g id="layer101" fill="#3498db" stroke="none">
 <path d="M0 640 l0 -640 640 0 640 0 0 640 0 640 -640 0 -640 0 0 -640z"/>
 </g>
<g id="layer102" fill="#feffff" stroke="none">
 <path d="M412 1164 l-22 -15 0 -380 c0 -330 -2 -379 -15 -379 -13 0 -15 21 -15 126 0 69 -5 134 -10 145 -12 21 -50 25 -68 7 -16 -16 -16 -282 -1 -326 6 -17 26 -41 44 -52 29 -18 49 -20 197 -20 203 0 218 7 256 110 14 36 35 94 49 129 13 35 25 78 26 95 1 17 10 37 20 44 11 9 17 27 17 55 0 41 2 43 42 57 26 9 48 25 58 42 13 25 13 29 -2 44 -16 16 -19 15 -45 -14 -15 -18 -33 -32 -40 -32 -15 0 -18 66 -4 74 5 4 4 19 -2 36 -9 25 -9 33 2 39 9 6 10 11 2 15 -13 9 -15 106 -1 106 13 0 48 -39 56 -62 6 -21 27 -23 43 -4 24 28 -21 90 -75 105 -23 6 -30 14 -32 39 -4 40 -22 42 -22 2 0 -24 -7 -33 -40 -50 -39 -20 -70 -62 -70 -95 0 -9 -9 -19 -20 -22 -23 -6 -27 -33 -5 -33 9 0 15 -9 15 -25 0 -16 -6 -25 -15 -25 -21 0 -19 -17 4 -23 10 -2 21 -17 25 -32 11 -44 36 -74 72 -87 33 -12 35 -15 32 -53 -3 -39 -4 -40 -41 -43 -32 -3 -39 0 -44 18 -3 11 -11 19 -17 17 -15 -5 -8 -38 10 -52 13 -9 13 -15 0 -45 -8 -19 -27 -72 -42 -117 -21 -63 -32 -83 -46 -83 -17 0 -18 20 -18 370 0 357 -1 371 -20 390 -24 24 -49 25 -76 6 -18 -13 -19 -30 -22 -230 l-3 -216 -25 0 -24 0 0 214 c0 211 0 215 -22 230 -12 9 -27 16 -33 16 -6 0 -21 -7 -33 -16z m458 -144 c0 -36 -2 -40 -25 -40 -28 0 -34 25 -15 61 19 34 40 23 40 -21z m0 -90 c0 -28 -30 -38 -46 -15 -17 23 -9 35 22 35 17 0 24 -5 24 -20z m-2 -93 c4 -43 -10 -48 -34 -12 -19 29 -12 58 13 53 13 -2 19 -14 21 -41z"/>
 <path d="M459 201 c-46 -46 -39 -95 21 -135 31 -20 53 -20 95 0 90 42 54 164 -48 164 -29 0 -46 -7 -68 -29z"/>
 </g>

</svg>