<!DOCTYPE svg PUBLIC "-//W3C//DTD SVG 20010904//EN" "http://www.w3.org/TR/2001/REC-SVG-20010904/DTD/svg10.dtd">
<svg version="1.0" xmlns="http://www.w3.org/2000/svg" width="128px" height="128px" viewBox="0 0 1280 1280" preserveAspectRatio="xMidYMid meet">
<g id="layer101" fill="#3498db" stroke="none">
 <path d="M0 640 l0 -640 640 0 640 0 0 640 0 640 -640 0 -640 0 0 -640z"/>
 </g>
<g id="layer102" fill="#fefeff" stroke="none">
 <path d="M659 1104 c-89 -90 -105 -126 -60 -132 18 -3 38 10 80 52 l56 55 75 -3 c56 -2 84 -9 113 -26 21 -12 36 -28 34 -34 -2 -6 -39 -13 -88 -16 -95 -6 -109 -12 -109 -44 0 -40 17 -45 117 -35 82 7 99 12 145 44 44 29 62 35 105 35 l53 0 0 80 0 80 -62 0 c-36 1 -74 7 -88 15 -18 10 -61 14 -156 15 l-131 0 -84 -86z"/>
 <path d="M220 830 c-89 -56 -148 -99 -153 -113 -17 -42 -2 -151 30 -219 57 -120 147 -187 265 -196 l67 -5 32 -52 32 -52 68 35 c38 20 69 42 69 49 0 8 -13 36 -28 63 l-29 50 26 53 c21 43 26 66 26 132 0 71 -4 88 -33 148 -38 76 -81 124 -144 160 -75 43 -72 44 -228 -53z"/>
 <path d="M796 739 c-37 -29 -34 -78 10 -189 20 -50 38 -89 40 -88 13 13 74 193 74 218 0 38 -39 80 -73 80 -13 0 -36 -9 -51 -21z"/>
 <path d="M815 338 c-2 -7 -6 -30 -10 -51 -5 -29 -12 -40 -33 -48 -20 -8 -233 -135 -261 -156 -3 -2 2 -10 10 -17 12 -13 34 -2 159 75 79 49 147 93 151 97 4 4 11 31 15 60 6 45 4 52 -10 52 -9 0 -18 -6 -21 -12z"/>
 <path d="M578 209 c-23 -17 -26 -24 -17 -40 10 -19 11 -19 39 -2 32 18 34 22 24 47 -8 20 -13 20 -46 -5z"/>
 </g>

</svg>