<!DOCTYPE svg PUBLIC "-//W3C//DTD SVG 20010904//EN" "http://www.w3.org/TR/2001/REC-SVG-20010904/DTD/svg10.dtd">
<svg version="1.0" xmlns="http://www.w3.org/2000/svg" width="128px" height="128px" viewBox="0 0 1280 1280" preserveAspectRatio="xMidYMid meet">
<g id="layer101" fill="#3498db" stroke="none">
 <path d="M0 640 l0 -640 640 0 640 0 0 640 0 640 -640 0 -640 0 0 -640z"/>
 </g>
<g id="layer102" fill="#feffff" stroke="none">
 <path d="M110 1011 c-5 -11 -10 -33 -10 -50 0 -24 -4 -31 -20 -31 -19 0 -20 -7 -20 -94 0 -73 4 -98 16 -110 8 -9 19 -16 24 -16 5 0 18 -30 30 -67 29 -89 43 -103 96 -103 37 0 43 -3 46 -22 3 -20 10 -23 61 -26 55 -3 57 -2 57 23 0 23 4 25 43 25 53 0 65 13 96 94 12 33 33 70 46 82 23 21 25 30 25 119 0 87 -2 95 -19 95 -16 0 -20 8 -23 41 -6 80 -70 80 -76 0 l-3 -41 -150 0 -149 0 0 38 c0 21 -5 43 -12 50 -18 18 -46 14 -58 -7z m68 -212 c4 -34 -20 -54 -47 -39 -20 10 -29 49 -14 64 4 4 19 6 33 4 19 -2 26 -10 28 -29z m372 12 c7 -14 5 -24 -8 -41 -20 -24 -48 -19 -57 11 -14 42 44 68 65 30z m-50 -120 c0 -20 -32 -96 -43 -103 -15 -10 -238 -10 -253 0 -9 6 -44 89 -44 105 0 4 77 7 170 7 94 0 170 -4 170 -9z"/>
 <path d="M686 1014 c-9 -8 -16 -31 -16 -50 0 -30 -3 -34 -25 -34 l-25 0 6 -172 c2 -95 10 -224 16 -286 13 -134 28 -160 111 -189 79 -27 252 -24 330 6 32 13 64 32 72 44 22 34 45 255 45 434 l0 163 -25 0 c-22 0 -25 4 -25 40 0 46 -26 68 -60 50 -15 -8 -20 -21 -20 -50 l0 -40 -155 0 -155 0 0 34 c0 35 -21 66 -45 66 -7 0 -21 -7 -29 -16z m60 -220 c9 -34 -18 -64 -44 -48 -35 23 -27 74 12 74 19 0 27 -7 32 -26z m392 -2 c4 -26 -13 -52 -34 -52 -23 0 -40 46 -24 65 19 23 54 15 58 -13z m-2 -176 c3 -9 0 -60 -7 -113 l-14 -98 -196 -3 c-149 -2 -199 1 -206 10 -15 19 -36 200 -24 207 5 3 107 8 225 10 190 3 217 1 222 -13z m-96 -271 c0 -13 -21 -15 -130 -15 -119 0 -142 4 -123 23 3 4 62 7 130 7 103 0 123 -2 123 -15z"/>
 </g>

</svg>