<!DOCTYPE svg PUBLIC "-//W3C//DTD SVG 20010904//EN" "http://www.w3.org/TR/2001/REC-SVG-20010904/DTD/svg10.dtd">
<svg version="1.0" xmlns="http://www.w3.org/2000/svg" width="128px" height="128px" viewBox="0 0 1280 1280" preserveAspectRatio="xMidYMid meet">
<g id="layer101" fill="#3498db" stroke="none">
 <path d="M0 640 l0 -640 640 0 640 0 0 640 0 640 -640 0 -640 0 0 -640z"/>
 </g>
<g id="layer102" fill="#feffff" stroke="none">
 <path d="M321 1160 c3 -37 -2 -45 -82 -132 -47 -51 -101 -111 -121 -133 l-35 -40 -13 -188 c-10 -149 -10 -190 0 -202 15 -18 54 -20 68 -2 6 7 16 82 22 167 l11 155 32 30 c83 76 160 140 171 140 6 0 12 -8 14 -19 3 -13 -22 -45 -78 -101 -71 -72 -82 -87 -76 -108 12 -50 41 -44 150 29 180 122 194 142 202 284 3 47 6 102 8 123 l4 37 -140 0 -140 0 3 -40z"/>
 <path d="M676 1163 c2 -21 5 -76 8 -123 8 -142 22 -162 202 -284 109 -73 138 -79 150 -29 6 21 -5 36 -76 108 -56 56 -81 88 -78 101 2 11 8 19 14 19 11 0 88 -64 171 -140 l32 -30 11 -155 c6 -85 16 -160 22 -167 14 -18 53 -16 68 2 10 12 10 53 0 202 l-13 188 -35 40 c-20 22 -74 82 -121 133 -80 87 -85 95 -82 132 l3 40 -140 0 -140 0 4 -37z"/>
 <path d="M326 634 c-3 -9 -6 -33 -6 -55 0 -22 -7 -54 -16 -71 -12 -22 -15 -53 -13 -112 1 -44 -1 -89 -5 -98 -11 -24 1 -38 33 -38 27 0 29 -3 35 -52 9 -65 27 -100 62 -118 37 -20 407 -22 441 -2 31 17 50 58 59 120 6 49 8 52 36 52 30 0 45 20 31 42 -4 7 -6 50 -4 94 2 60 -1 89 -13 112 -9 17 -16 49 -16 71 0 64 -6 71 -61 71 -48 0 -49 -1 -49 -30 l0 -30 -205 0 -205 0 0 30 c0 29 -1 30 -49 30 -35 0 -51 -4 -55 -16z m104 -183 c20 -38 -13 -71 -51 -51 -21 12 -25 40 -7 58 18 18 46 14 58 -7z m468 7 c18 -18 14 -46 -7 -58 -38 -20 -71 13 -51 51 12 21 40 25 58 7z m-143 -28 c0 -12 -21 -16 -114 -18 -111 -3 -141 4 -126 27 4 8 45 11 123 9 96 -2 117 -6 117 -18z m121 -186 c-3 -9 -6 -29 -6 -45 0 -18 -10 -39 -25 -54 -24 -25 -26 -25 -210 -25 -184 0 -186 0 -210 25 -15 15 -25 36 -25 54 0 16 -3 36 -6 45 -6 14 20 16 241 16 221 0 247 -2 241 -16z"/>
 </g>

</svg>