<?xml version="1.0" encoding="iso-8859-1"?>
<!-- Generator: Adobe Illustrator 19.0.1, SVG Export Plug-In . SVG Version: 6.00 Build 0)  -->
<svg version="1.1" xmlns="http://www.w3.org/2000/svg" xmlns:xlink="http://www.w3.org/1999/xlink" x="0px" y="0px"
	 viewBox="0 0 95.19 95.19" style="enable-background:new 0 0 95.19 95.19;" xml:space="preserve">
<g id="Layer_2" style="display:none;">
	<rect x="8.37" y="8.37" style="display:inline;fill:#828A93;" width="78.451" height="78.451"/>
	<rect x="8.37" y="8.37" style="display:inline;fill:#828A93;" width="78.451" height="78.451"/>
</g>
<g id="Layer_1">
	<g>
		<g>
			<path style="fill:#57C2E7;" d="M19.492,52.139v34.545h15.063V61.6C28.766,59.795,23.569,56.496,19.492,52.139z"/>
			<path style="fill:#57C2E7;" d="M40.935,62.907v23.777h15.063V61.289c-3.517,1.214-7.251,1.867-11.173,1.867
				C43.518,63.125,42.211,63.062,40.935,62.907z"/>
			<path style="fill:#57C2E7;" d="M62.347,58.363v28.321H77.41V40.157C74.671,47.844,69.287,54.286,62.347,58.363z"/>
			<path style="fill:#57C2E7;" d="M44.825,60.635c17.739,0,32.118-14.378,32.118-32.118h5.011L70.376,8.506L58.83,28.517h4.979
				c0,14.098-11.453,25.551-25.551,25.551c-12.169,0-22.314-8.496-24.897-19.887h-0.124C15.913,49.213,29.015,60.635,44.825,60.635z
				"/>
		</g>
	</g>
</g>
</svg>
